# xmcd
#
# Track frame offsets: 
#        150
#        13049
#        25458
#        37036
#        50021
#        66825
#        82929
#        99180
#        117200
#        131047
#        149957
#
# Disc length: 2194 seconds
#
# Revision: 4
# Processed by: cddbd v1.5.2PL0 Copyright (c) Steve Scherf et al.
# Submitted via: ExactAudioCopy v1.0b1
#
DISCID=9c08900b
DTITLE=The Kentucky Headhunters - Stompin' Grounds
DYEAR=1997
DGENRE=Country
TTITLE0=Neck Of The Woods
TTITLE1=Singin' The Blues
TTITLE2=Party Zone
TTITLE3=Private Part
TTITLE4=Kentucky Wildcat
TTITLE5=Runnin' Water
TTITLE6=Farmer's Daughter
TTITLE7=See Rock City
TTITLE8=Southern Belle
TTITLE9=Country Best
TTITLE10=Mr. Know-It-All
EXTD=
EXTT0=
EXTT1=
EXTT2=
EXTT3=
EXTT4=
EXTT5=
EXTT6=
EXTT7=
EXTT8=
EXTT9=
EXTT10=
PLAYORDER=
